# xmcd
#
# Track frame offsets: 
#        150
#        24650
#        46916
#        70408
#        111397
#        139792
#        177677
#        206079
#        234117
#        269199
#        288479
#
# Disc length: 4512 seconds
#
# Revision: 0
# Processed by: cddbd v1.5.2PL0 Copyright (c) Steve Scherf et al.
# Submitted via: ExactAudioCopyFreeDBPlugin 1.0
#
DISCID=b1119e0b
DTITLE=Gov't Mule - Shout! (1)
DYEAR=2013
DGENRE=Rock
TTITLE0=World Boss
TTITLE1=No Reward
TTITLE2=Whisper In Your Soul
TTITLE3=Captured
TTITLE4=Scared To Live
TTITLE5=Stoop So Low
TTITLE6=Forsaken Savior
TTITLE7=Done Got Wise
TTITLE8=When The World Gets Small
TTITLE9=Funny Little Tragedy
TTITLE10=Bring On The Music
EXTD=
EXTT0=
EXTT1=
EXTT2=
EXTT3=
EXTT4=
EXTT5=
EXTT6=
EXTT7=
EXTT8=
EXTT9=
EXTT10=
PLAYORDER=
